<svg width="41" height="41" viewBox="0 0 41 41" fill="none" xmlns="http://www.w3.org/2000/svg">
<path d="M27.4367 4.19216C27.9171 4.6727 28.187 5.32436 28.187 6.00385C28.187 6.68333 27.9171 7.33499 27.4367 7.81553L14.7524 20.4999L27.4367 33.1843C27.9035 33.6676 28.1618 34.3149 28.156 34.9867C28.1501 35.6586 27.8806 36.3013 27.4055 36.7764C26.9304 37.2516 26.2877 37.521 25.6158 37.5269C24.944 37.5327 24.2967 37.2744 23.8134 36.8077L9.31731 22.3116C8.83691 21.8311 8.56704 21.1794 8.56704 20.4999C8.56704 19.8204 8.83691 19.1688 9.31731 18.6882L23.8134 4.19216C24.2939 3.71177 24.9456 3.44189 25.6251 3.44189C26.3045 3.44189 26.9562 3.71177 27.4367 4.19216Z" fill="#D1D1D1"/>
</svg>
